<?xml version="1.0" encoding="UTF-8" standalone="no" ?>
<!DOCTYPE svg PUBLIC "-//W3C//DTD SVG 1.1//EN" "http://www.w3.org/Graphics/SVG/1.1/DTD/svg11.dtd">
<svg xmlns="http://www.w3.org/2000/svg" xmlns:xlink="http://www.w3.org/1999/xlink" version="1.1" width="135.88999999999993" height="156.08200000000002" xml:space="preserve">
<desc>Created with Fabric.js 1.6.0-rc.1</desc>
<defs></defs>
  <g transform="translate(113.63 120.37)">
   <text font-family="ADAMCG PRO" font-size="40" font-weight="normal" style="stroke: none; stroke-width: 1; stroke-dasharray: none; stroke-linecap: butt; stroke-linejoin: miter; stroke-miterlimit: 10; fill: #000000; fill-rule: nonzero; opacity: 1;" ><tspan x="0" y="8.98" fill="#000000"></tspan></text>
 </g>
  <g transform="translate(56.06 48.36)">
   <text font-family="FFF Tusj" font-size="40" font-weight="normal" style="stroke: none; stroke-width: 1; stroke-dasharray: none; stroke-linecap: butt; stroke-linejoin: miter; stroke-miterlimit: 10; fill: #d65008; fill-rule: nonzero; opacity: 1;" ><tspan x="-45.56" y="8.98" style="stroke: none; stroke-width: 0; stroke-dasharray: none; stroke-linecap: butt; stroke-linejoin: miter; stroke-miterlimit: 4; fill: #d65008; fill-rule: ; opacity: 1;">C</tspan><tspan x="-19.44" y="8.98" style="stroke: none; stroke-width: 0; stroke-dasharray: none; stroke-linecap: butt; stroke-linejoin: miter; stroke-miterlimit: 4; fill: #d65008; fill-rule: ; opacity: 1;">a</tspan><tspan x="3.06" y="8.98" style="stroke: none; stroke-width: 0; stroke-dasharray: none; stroke-linecap: butt; stroke-linejoin: miter; stroke-miterlimit: 4; fill: #d65008; fill-rule: ; opacity: 1;">r</tspan><tspan x="23.06" y="8.98" style="stroke: none; stroke-width: 0; stroke-dasharray: none; stroke-linecap: butt; stroke-linejoin: miter; stroke-miterlimit: 4; fill: #d65008; fill-rule: ; opacity: 1;">a</tspan></text>
 </g>
<g style="stroke: none; stroke-width: 1; stroke-dasharray: none; stroke-linecap: butt; stroke-linejoin: miter; stroke-miterlimit: 10; fill: none; fill-rule: nonzero; opacity: 1;" transform="translate(100.80999999999995 32.610000000000014) scale(0.38 0.62)" >
  <path d="M 0 43.545 c 0 0 5.105 -9.549 12.42 -17.985 c -0.764 -1.251 -1.505 -2.52 -2.217 -3.787 C 4.094 32.659 0 43.545 0 43.545" style="stroke: none; stroke-width: 1; stroke-dasharray: none; stroke-linecap: butt; stroke-linejoin: miter; stroke-miterlimit: 10; fill: #336699; fill-rule: nonzero; opacity: 1;" transform=" matrix(1 0 0 1 0 0) " stroke-linecap="round" />
  <path d="M 54.799 21.772 c -0.89 -1.585 -1.826 -3.165 -2.793 -4.716 C 46.32 7.951 39.391 0 32.5 0 c -6.889 0 -13.818 7.951 -19.502 17.057 c 1.264 1.305 2.59 2.568 3.965 3.75 c 4.803 -4.514 10.182 -7.901 15.537 -7.901 c 5.356 0 10.736 3.388 15.539 7.901 c 1.585 1.491 3.106 3.098 4.543 4.753 C 59.896 33.996 65 43.545 65 43.545 S 60.908 32.659 54.799 21.772" style="stroke: none; stroke-width: 1; stroke-dasharray: none; stroke-linecap: butt; stroke-linejoin: miter; stroke-miterlimit: 10; fill: #336699; fill-rule: nonzero; opacity: 1;" transform=" matrix(1 0 0 1 0 0) " stroke-linecap="round" />
  <path d="M 65 0 c 0 0 -5.375 9.196 -12.994 17.057 c 0.967 1.551 1.903 3.131 2.793 4.716 C 60.908 10.887 65 0 65 0" style="stroke: none; stroke-width: 1; stroke-dasharray: none; stroke-linecap: butt; stroke-linejoin: miter; stroke-miterlimit: 10; fill: #FF3333; fill-rule: nonzero; opacity: 1;" transform=" matrix(1 0 0 1 0 0) " stroke-linecap="round" />
  <path d="M 48.039 20.807 c -4.803 4.132 -10.183 7.232 -15.539 7.232 c -5.355 0 -10.734 -3.101 -15.537 -7.232 c -1.375 -1.182 -2.701 -2.445 -3.965 -3.75 C 5.375 9.196 0 0 0 0 s 4.094 10.887 10.203 21.772 c 0.712 1.268 1.453 2.536 2.217 3.788 c 5.788 9.487 12.957 17.984 20.08 17.984 c 7.125 0 14.294 -8.497 20.082 -17.984 C 51.146 23.904 49.624 22.298 48.039 20.807" style="stroke: none; stroke-width: 1; stroke-dasharray: none; stroke-linecap: butt; stroke-linejoin: miter; stroke-miterlimit: 10; fill: #FF3333; fill-rule: nonzero; opacity: 1;" transform=" matrix(1 0 0 1 0 0) " stroke-linecap="round" />
</g>
<g style="stroke: none; stroke-width: 1; stroke-dasharray: none; stroke-linecap: butt; stroke-linejoin: miter; stroke-miterlimit: 10; fill: none; fill-rule: nonzero; opacity: 1;" transform="translate(75.04999999999995 10) scale(0.62 0.62)" >
  <path d="m 22.9 28.4 c 2 3 2 7 0 10 c -3 4 -7 6 -12 5 c -6 -1 -9.9 -6 -10.8 -12 c -0.5 -5 1.9 -10 4.8 -14 c 8 -6 20 -5 26 4 c 8 10 4 24 -7 29 c 10 -6 13 -22 4 -30 c -6 -5 -15 -6 -21 0 c -3 4 -4.9 9 -3 14 c 3 4 8 7 13 4 c 2 -1 4 -3 3 -6 c 0 -2 -2 -4 -4 -3 c -1 1 0 2 -2 3 c -3 0 -4 -4 -1 -6 c 2 -2 4 -2 7 -1 c 1 0 2 1 3 3 z" style="stroke: none; stroke-width: 1; stroke-dasharray: none; stroke-linecap: butt; stroke-linejoin: miter; stroke-miterlimit: 10; fill: #00a120; fill-rule: nonzero; opacity: 1;" transform="" stroke-linecap="round" />
  <path d="m 4.9 2.7 c 11 -4.6 24 -3.696 31 5.7 c 10 14 6 32 -9 40 c 12 -10 17 -25 5 -37 c -3 -3 -15 -9.3 -25 -2 c -5.5 3 -9.1 -3.3 -2 -6.7 z" style="stroke: none; stroke-width: 1; stroke-dasharray: none; stroke-linecap: butt; stroke-linejoin: miter; stroke-miterlimit: 10; fill: #00a120; fill-rule: nonzero; opacity: 1;" transform="" stroke-linecap="round" />
  <path d="m 31.9 44.4 c 0 0 5 -12 23 -12 c 17 1 18 9 15 11 c -2 1 -4 1 -6 -3 c -3 -3 -10 -5 -15 -5 c -6 1 -9 0 -17 9 z" style="stroke: none; stroke-width: 1; stroke-dasharray: none; stroke-linecap: butt; stroke-linejoin: miter; stroke-miterlimit: 10; fill: #00a120; fill-rule: nonzero; opacity: 1;" transform="" stroke-linecap="round" />
  <path d="m 47.9 24.4 c 0 0 4 -11 1 -17 c -2 -5.3 5 -6.3 5 -1 c -1 6 0 9 -6 18 z" style="stroke: none; stroke-width: 1; stroke-dasharray: none; stroke-linecap: butt; stroke-linejoin: miter; stroke-miterlimit: 10; fill: #aad400; fill-rule: nonzero; opacity: 1;" transform="" stroke-linecap="round" />
  <circle cx="58.900000000000006" cy="23.4" r="2.06" style="stroke: none; stroke-width: 1; stroke-dasharray: none; stroke-linecap: butt; stroke-linejoin: miter; stroke-miterlimit: 10; fill: #aad400; fill-rule: nonzero; opacity: 1;" transform=" "/>
  <circle cx="62.9" cy="20.4" r="1.11" style="stroke: none; stroke-width: 1; stroke-dasharray: none; stroke-linecap: butt; stroke-linejoin: miter; stroke-miterlimit: 10; fill: #aad400; fill-rule: nonzero; opacity: 1;" transform=" "/>
  <circle cx="65.899" cy="24.399" r="0.779" style="stroke: none; stroke-width: 1; stroke-dasharray: none; stroke-linecap: butt; stroke-linejoin: miter; stroke-miterlimit: 10; fill: #aad400; fill-rule: nonzero; opacity: 1;" transform=" "/>
</g>
</svg>